# xmcd CD database file
#
# Track frame offsets:
#	150
#	49813
#	87545
#	128345
#	166905
#	195083
#	230372
#	267118
#	292538
#
# Disc length: 4312 seconds
#
# Revision: 0
# Processed by: cddbd v1.5.2PL0 Copyright (c) Steve Scherf et al.
# Submitted via: CDex 1.51
#
DISCID=6510d609
DTITLE=Marcelo Gutfraind - Rio Abajo
DYEAR=2003
DGENRE=Jazz
TTITLE0=Un Simple Cuento De Una Noche Sin Sueño
TTITLE1=Rio Abajo
TTITLE2=Cut And Paste
TTITLE3=El Mago
TTITLE4=En Camino
TTITLE5=Sin Palabras
TTITLE6=Carasca
TTITLE7=Entre Dioses Y Gigantes
TTITLE8=Reguy
EXTD=YEAR: 2003
EXTT0=
EXTT1=
EXTT2=
EXTT3=
EXTT4=
EXTT5=
EXTT6=
EXTT7=
EXTT8=
PLAYORDER=
